<svg viewBox="0 0 32 32" xml:space="preserve" xmlns="http://www.w3.org/2000/svg" enable-background="new 0 0 32 32"><path d="M29 5H3c-.6 0-1 .4-1 1v20c0 .6.4 1 1 1h26c.6 0 1-.4 1-1V6c0-.6-.4-1-1-1zM13 24c-4.4 0-8-3.6-8-8s3.6-8 8-8 8 3.6 8 8-3.6 8-8 8zm12-12.3V21c0 .3-.1.5-.3.7l-2 2c-.2.2-.4.3-.7.3s-.5-.1-.7-.3c-.4-.4-.4-1 0-1.4l1.7-1.7v-8.9c-.6-.3-1-1-1-1.7 0-1.1.9-2 2-2s2 .9 2 2c0 .7-.4 1.4-1 1.7z" fill="#e0e0e0" class="fill-000000"></path><circle cx="13" cy="16" r="3" fill="#e0e0e0" class="fill-000000"></circle></svg>