<svg overflow="visible" viewBox="0 0 25.6 25.6" xmlns="http://www.w3.org/2000/svg" fill-rule="evenodd" stroke-width=".50099999" stroke-linejoin="bevel"><path d="M0-3.652v-32.676a3.654 3.654 0 0 1 3.65-3.652h32.668a3.655 3.655 0 0 1 3.65 3.652v32.676A3.654 3.654 0 0 1 36.319 0H3.65A3.652 3.652 0 0 1 0-3.652zm38.72 0v-32.676a2.407 2.407 0 0 0-2.402-2.403H3.65a2.406 2.406 0 0 0-2.401 2.403v32.676A2.405 2.405 0 0 0 3.65-1.25h32.668a2.406 2.406 0 0 0 2.402-2.402z" transform="matrix(.6405 0 0 .64032 0 25.6)" fill="#e0e0e0" fill-opacity="1" fill-rule="evenodd" stroke="none" class="fill-000000"></path><path d="m19.75-6.316-9.442-5.31a.623.623 0 0 1-.318-.545V-16.9l-3.482-2.475a.623.623 0 0 1-.052-.978l4.54-3.981-4.508-3.46a.625.625 0 0 1 .052-1.027l7.776-4.825a.625.625 0 0 1 .71.035l4.956 3.805 4.957-3.805a.625.625 0 0 1 .71-.035l7.777 4.825c.371.23.398.761.051 1.026l-4.51 3.46 4.542 3.982a.623.623 0 0 1-.052.978l-3.482 2.473.002.02v4.711a.627.627 0 0 1-.317.544l-9.295 5.31a.622.622 0 0 1-.615.001zm.303-1.261 8.675-4.955v-3.485l-3.048 2.162a.621.621 0 0 1-.772-.04l-4.926-4.32-4.924 4.32a.621.621 0 0 1-.773.04l-3.046-2.16v3.48l8.814 4.958zm-5.448-7.582 4.168-3.657-6.73-4.775-4.168 3.655 6.73 4.777zm10.756 0 6.729-4.777-4.168-3.655-6.73 4.775 4.169 3.657zm-5.38-4.33 6.827-4.844-6.826-4.233-6.826 4.233 6.826 4.843zm-7.941-5.622 6.643-4.118-4.075-3.127-6.643 4.12 4.075 3.125zm15.885 0L32-28.236l-6.643-4.12-4.075 3.127 6.643 4.118z" transform="matrix(.6405 0 0 .64032 0 25.6)" fill="#e0e0e0" fill-opacity="1" fill-rule="evenodd" stroke="none" class="fill-000000"></path></svg>